<?xml version="1.0" encoding="UTF-8"?>
<svg width="188px" height="188px" viewBox="0 0 188 188" version="1.1" xmlns="http://www.w3.org/2000/svg" xmlns:xlink="http://www.w3.org/1999/xlink">
    <title>编组 38</title>
    <defs>
        <filter x="-3.8%" y="-5.7%" width="107.6%" height="111.4%" filterUnits="objectBoundingBox" id="filter-1">
            <feOffset dx="0" dy="1" in="SourceAlpha" result="shadowOffsetOuter1"></feOffset>
            <feGaussianBlur stdDeviation="15" in="shadowOffsetOuter1" result="shadowBlurOuter1"></feGaussianBlur>
            <feColorMatrix values="0 0 0 0 0   0 0 0 0 0   0 0 0 0 0  0 0 0 0.1 0" type="matrix" in="shadowBlurOuter1" result="shadowMatrixOuter1"></feColorMatrix>
            <feMerge>
                <feMergeNode in="shadowMatrixOuter1"></feMergeNode>
                <feMergeNode in="SourceGraphic"></feMergeNode>
            </feMerge>
        </filter>
    </defs>
    <g id="页面-1" stroke="none" stroke-width="1" fill="none" fill-rule="evenodd">
        <g id="1" transform="translate(-132.000000, -281.000000)">
            <g id="编组-16" filter="url(#filter-1)" transform="translate(155.000000, 110.000000)">
                <g id="日历bg" transform="translate(21.000000, 215.000000)">
                    <g id="编组-34">
                        <rect id="矩形" fill="#FF3D49" x="0" y="0" width="100" height="100" rx="24"></rect>
                        <path d="M34.6128958,74.5371094 C38.2652395,74.5371094 41.1835338,73.5166016 43.3677786,71.4755859 C45.5520234,69.4345703 46.6441458,66.7400716 46.6441458,63.3920898 C46.6441458,61.1004232 46.0175182,59.1265462 44.764263,57.470459 C43.5110077,55.8143717 41.6669322,54.6461589 39.2320364,53.9658203 C41.3088593,53.1780599 42.942567,51.9919434 44.1331594,50.4074707 C45.3237519,48.822998 45.9190481,47.0908203 45.9190481,45.2109375 C45.9190481,41.8450521 44.8985403,39.1953125 42.8575247,37.2617188 C40.816509,35.328125 38.0235403,34.3613281 34.4786184,34.3613281 C32.27647,34.3613281 30.2712617,34.8178711 28.4629934,35.730957 C26.6547252,36.644043 25.2403372,37.9375814 24.2198294,39.6115723 C23.1993215,41.2855632 22.6890676,43.1341146 22.6890676,45.1572266 L22.6890676,45.1572266 L25.9117239,45.1572266 C25.9117239,42.7402344 26.712912,40.7932129 28.3152883,39.3161621 C29.9176646,37.8391113 31.972108,37.1005859 34.4786184,37.1005859 C37.128358,37.1005859 39.1604218,37.8077799 40.5748098,39.222168 C41.9891978,40.636556 42.6963919,42.5970052 42.6963919,45.1035156 C42.6963919,46.5895182 42.333843,47.9009603 41.6087454,49.0378418 C40.8836477,50.1747233 39.8318085,51.0699056 38.4532278,51.7233887 C37.0746471,52.3768717 35.4633189,52.7036133 33.6192434,52.7036133 L33.6192434,52.7036133 L30.2891653,52.7036133 L30.2891653,55.4428711 L33.5118215,55.4428711 C36.7702851,55.4428711 39.2365123,56.1321615 40.9105032,57.5107422 C42.5844941,58.8893229 43.4214895,60.8855794 43.4214895,63.4995117 C43.4214895,66.2029622 42.6471568,68.2663574 41.0984915,69.6896973 C39.5498261,71.1130371 37.3879609,71.824707 34.6128958,71.824707 C31.8915416,71.824707 29.6625377,71.0414225 27.925884,69.4748535 C26.1892304,67.9082845 25.3209036,65.8806966 25.3209036,63.3920898 L25.3209036,63.3920898 L22.0982473,63.3920898 C22.0982473,65.6121419 22.6308808,67.5591634 23.6961477,69.2331543 C24.7614146,70.9071452 26.2653209,72.2096354 28.2078665,73.140625 C30.150412,74.0716146 32.2854218,74.5371094 34.6128958,74.5371094 Z M65.2281301,74.5371094 C69.1669322,74.5371094 72.1478893,73.1092936 74.1710012,70.2536621 C76.1941132,67.3980306 77.2056692,63.2130534 77.2056692,57.6987305 L77.2056692,57.6987305 L77.2056692,50.5283203 C77.1340546,45.2109375 76.0777395,41.1870931 74.0367239,38.4567871 C71.9957083,35.7264811 69.0416067,34.3613281 65.1744192,34.3613281 C61.2535208,34.3613281 58.2725637,35.7757161 56.2315481,38.6044922 C54.1905325,41.4332682 53.1700247,45.5958659 53.1700247,51.0922852 L53.1700247,51.0922852 L53.1700247,58.1015625 C53.2237356,63.4547526 54.2800507,67.5323079 56.33897,70.3342285 C58.3978893,73.1361491 61.3609426,74.5371094 65.2281301,74.5371094 Z M65.2281301,71.824707 C62.3456432,71.824707 60.1479706,70.6430664 58.6351126,68.2797852 C57.1222545,65.9165039 56.3658255,62.5058594 56.3658255,58.0478516 L56.3658255,58.0478516 L56.3658255,50.3671875 C56.4016327,45.9986979 57.1535859,42.6954753 58.6216848,40.4575195 C60.0897838,38.2195638 62.2740286,37.1005859 65.1744192,37.1005859 C68.1285208,37.1005859 70.3351451,38.2464193 71.7942922,40.5380859 C73.2534394,42.8297526 73.983013,46.2135417 73.983013,50.6894531 L73.983013,50.6894531 L73.983013,58.2089844 C73.9651093,62.6669922 73.2176321,66.0507812 71.7405813,68.3603516 C70.2635305,70.6699219 68.0927135,71.824707 65.2281301,71.824707 Z" id="30" fill="#FFFFFF" fill-rule="nonzero"></path>
                        <path d="M32.7119141,25 L32.7119141,20.0166016 L32.5449219,14.6640625 L36.7373047,25 L38.0292969,25 L42.2304688,14.6376953 L42.0722656,20.0166016 L42.0722656,25 L43.7597656,25 L43.7597656,12.203125 L41.5712891,12.203125 L37.3876953,22.6445312 L33.2041016,12.203125 L31.0244141,12.203125 L31.0244141,25 L32.7119141,25 Z M51.4501953,25.1757812 C52.4814453,25.1757812 53.3837891,24.9296875 54.1572266,24.4375 C54.9306641,23.9453125 55.5283203,23.2319336 55.9501953,22.2973633 C56.3720703,21.362793 56.5830078,20.2685547 56.5830078,19.0146484 L56.5830078,19.0146484 L56.5830078,18.2060547 C56.5830078,16.9580078 56.3720703,15.8637695 55.9501953,14.9233398 C55.5283203,13.9829102 54.9262695,13.2651367 54.144043,12.7700195 C53.3618164,12.2749023 52.4580078,12.0273438 51.4326172,12.0273438 C50.4248047,12.0273438 49.5297852,12.277832 48.7475586,12.7788086 C47.965332,13.2797852 47.3603516,14.0019531 46.9326172,14.9453125 C46.5048828,15.8886719 46.2910156,16.9755859 46.2910156,18.2060547 L46.2910156,18.2060547 L46.2910156,19.1289062 C46.3027344,20.3359375 46.5239258,21.3979492 46.9545898,22.3149414 C47.3852539,23.2319336 47.9902344,23.9379883 48.7695312,24.4331055 C49.5488281,24.9282227 50.4423828,25.1757812 51.4501953,25.1757812 Z M51.4501953,23.7431641 C50.3662109,23.7431641 49.5151367,23.3227539 48.8969727,22.4819336 C48.2788086,21.6411133 47.9697266,20.4853516 47.9697266,19.0146484 L47.9697266,19.0146484 L47.9697266,18.0742188 C47.9873047,16.6328125 48.3022461,15.5063477 48.9145508,14.6948242 C49.5268555,13.8833008 50.3662109,13.4775391 51.4326172,13.4775391 C52.5283203,13.4775391 53.3808594,13.8833008 53.9902344,14.6948242 C54.5996094,15.5063477 54.9042969,16.6708984 54.9042969,18.1884766 L54.9042969,18.1884766 L54.9042969,19.1376953 C54.8867188,20.6201172 54.5791016,21.7583008 53.9814453,22.5522461 C53.3837891,23.3461914 52.5400391,23.7431641 51.4501953,23.7431641 Z M60.8105469,25 L60.8105469,15.1386719 L67.2529297,25 L68.9492188,25 L68.9492188,12.203125 L67.2705078,12.203125 L67.2705078,22.1083984 L60.8105469,12.203125 L59.1142578,12.203125 L59.1142578,25 L60.8105469,25 Z" id="MON" fill="#FFFFFF" fill-rule="nonzero"></path>
                        <circle id="椭圆形备份-4" fill="#FFFFFF" cx="49" cy="88" r="4"></circle>
                    </g>
                    <g id="编组-30" transform="translate(9.578947, 16.526316)"></g>
                </g>
            </g>
        </g>
    </g>
</svg>