<?xml version="1.0" encoding="UTF-8"?>
<svg width="100px" height="100px" viewBox="0 0 100 100" version="1.1" xmlns="http://www.w3.org/2000/svg" xmlns:xlink="http://www.w3.org/1999/xlink">
    <title>编组 16备份 3</title>
    <g id="页面-1" stroke="none" stroke-width="1" fill="none" fill-rule="evenodd">
        <g id="桌面备份-3" transform="translate(-177.000000, -328.000000)">
            <g id="编组-16" transform="translate(155.000000, 110.000000)">
                <g id="日历bg" transform="translate(22.000000, 218.000000)">
                    <g id="编组-34">
                        <rect id="矩形" fill="#FF3D49" x="0" y="0" width="100" height="100" rx="24"></rect>
                        <path d="M32.125,74.66 C38.89,74.66 45.05,70.48 45.05,62.835 C45.05,56.07 40.21,52.275 34.435,51.505 L43.4,39.13 L43.4,35.5 L20.85,35.5 L20.85,39.13 L38.945,39.13 L29.375,52.22 L31.025,54.75 L32.07,54.75 L32.125,54.695 L32.125,54.75 C37.13,54.75 41.2,57.5 41.2,62.835 C41.2,68.17 37.13,70.92 32.125,70.92 C27.725,70.92 24.205,69.05 22.94,65.145 L19.75,67.015 C21.62,72.075 26.57,74.66 32.125,74.66 Z M64.575,74.66 C73.98,74.66 79.15,66.63 79.15,54.75 C79.15,42.87 73.98,34.84 64.575,34.84 C55.17,34.84 50,42.87 50,54.75 C50,66.63 55.17,74.66 64.575,74.66 Z M64.575,70.92 C57.81,70.92 53.85,65.035 53.85,54.75 C53.85,44.465 57.81,38.58 64.575,38.58 C71.34,38.58 75.3,44.465 75.3,54.75 C75.3,65.035 71.34,70.92 64.575,70.92 Z" id="30" fill="#FFFFFF" fill-rule="nonzero"></path>
                        <path d="M32.477,25 L32.477,15.172 L36.599,22.012 L36.815,22.012 L40.937,15.154 L40.937,25 L42.593,25 L42.593,12.4 L40.703,12.4 L36.707,19.06 L32.693,12.4 L30.803,12.4 L30.803,25 L32.477,25 Z M51.143,25.234 C54.797,25.234 57.677,22.318 57.677,18.7 C57.677,15.064 54.797,12.166 51.143,12.166 C47.489,12.166 44.627,15.064 44.627,18.7 C44.627,22.318 47.489,25.234 51.143,25.234 Z M51.143,23.596 C48.389,23.596 46.283,21.454 46.283,18.7 C46.283,15.928 48.389,13.786 51.143,13.786 C53.897,13.786 56.003,15.928 56.003,18.7 C56.003,21.454 53.897,23.596 51.143,23.596 Z M61.367,25 L61.367,15.586 L67.847,25 L69.197,25 L69.197,12.4 L67.523,12.4 L67.523,21.796 L61.043,12.4 L59.693,12.4 L59.693,25 L61.367,25 Z" id="MON" fill="#FFFFFF" fill-rule="nonzero"></path>
                        <circle id="椭圆形备份-4" fill="#FFFFFF" cx="49" cy="88" r="4"></circle>
                    </g>
                    <g id="编组-30" transform="translate(9.578947, 16.526316)"></g>
                </g>
            </g>
        </g>
    </g>
</svg>